<?xml version="1.0" encoding="utf-8"?>
<!-- Generator: Adobe Illustrator 25.2.1, SVG Export Plug-In . SVG Version: 6.00 Build 0)  -->
<svg version="1.1" id="Layer_1" xmlns="http://www.w3.org/2000/svg" xmlns:xlink="http://www.w3.org/1999/xlink" x="0px" y="0px"
	 viewBox="0 0 70 70" style="enable-background:new 0 0 70 70;" xml:space="preserve">
<style type="text/css">
	.st0{filter:url(#Adobe_OpacityMaskFilter);}
	.st1{fill-rule:evenodd;clip-rule:evenodd;fill:#FFFFFF;}
	.st2{mask:url(#icon-b_1_);}
	.st3{fill-rule:evenodd;clip-rule:evenodd;fill:#FFB000;}
	.st4{fill-rule:evenodd;clip-rule:evenodd;fill:#FFFFFF;fill-opacity:0.383;}
	.st5{opacity:0.324;fill-rule:evenodd;clip-rule:evenodd;fill:#393939;enable-background:new    ;}
	.st6{fill-rule:evenodd;clip-rule:evenodd;fill-opacity:0.383;}
	.st7{fill:#FFFFFF;}
</style>
<g>
	<defs>
		<filter id="Adobe_OpacityMaskFilter" filterUnits="userSpaceOnUse" x="0" y="-0.2" width="70" height="70.2">
			<feColorMatrix  type="matrix" values="1 0 0 0 0  0 1 0 0 0  0 0 1 0 0  0 0 0 1 0"/>
		</filter>
	</defs>
	<mask maskUnits="userSpaceOnUse" x="0" y="-0.2" width="70" height="70.2" id="icon-b_1_">
		<g class="st0">
			<path id="icon-a_1_" class="st1" d="M4,0c32.4,0,54.1,0,61,0c4,0,5,1,5,5c0,38,0,57.4,0,60c0,4-1,5-5,5S9,70,4,70c-3,0-4-1-4-5
				c0-2.5,0-23.2,0-60C0,1,1,0,4,0z"/>
		</g>
	</mask>
	<g class="st2">
		<rect y="0" class="st3" width="70" height="70"/>
		<path class="st4" d="M4,1h61c2.7,0,4.3,0.7,5,2c0-2.7,0-3.7,0-3H0c0-0.7,0,0.3,0,3C0.7,1.7,2,1,4,1z"/>
		<path class="st5" d="M4,70c-2,0-4-0.1-4-4.2V37.1l16.4-17.5c2.1-1.5,19.9-0.9,19.9-0.9L27,28.8l3.3,3.4l17-18.2
			c-6,7.2,12.3,14.5,13.6,13.4c0,0-13,14.1-15.4,16.6c-2.1,7.9,6.8,9.8,6.7,9.9c-2.5,2.9-4.6,5.4-13.9,16H4z"/>
		<path class="st6" d="M4,69h61c2.7,0,4.3-1,5-3c0,2.7,0,4,0,4H0c0,0,0-1.3,0-4C0.7,68,2,69,4,69z"/>
	</g>
	<g>
		<path class="st7" d="M61.2,20.2c0.6,0.6,1.1,1.1,1.6,1.5c0.3,0.3,0.4,0.6,0.3,1.1c-0.7,4.5-4.6,7.9-9.2,7.9
			c-1.2,0-2.4-0.1-3.5-0.6c-0.5-0.2-0.9-0.1-1.2,0.3c-0.3,0.3-0.6,0.6-0.8,0.9c-7.5,7.5-14.9,14.9-22.4,22.4c-0.3,0.3-0.6,0.7-1,0.9
			c-1.4,1.2-3.4,1.1-4.6-0.2c-1.2-1.2-1.3-3.1-0.2-4.5c0.3-0.4,0.7-0.7,1-1.1c7.5-7.5,15-15,22.5-22.5c0.8-0.8,1.3-1.4,0.7-2.7
			C42.2,18.9,46,13.4,51.2,12c0.2-0.1,0.4-0.1,0.6-0.1c0.6-0.1,1.1,0,1.6,0.5c0.3,0.3,0.6,0.6,0.8,0.9c0.4,0.5,0.4,0.5,0,1
			c-1.1,1.1-2.1,2.2-3.2,3.2c-0.7,0.6-0.9,1.3-0.6,2.2c0.3,0.9,0.5,1.8,0.8,2.7c0.2,0.8,0.6,1.2,1.4,1.4c1,0.2,1.9,0.5,2.9,0.8
			c0.8,0.2,1.4,0.1,2-0.5c1-1,2-2.1,3.1-3.1C60.7,20.7,60.9,20.5,61.2,20.2z M23.7,52.4c0.7,0,1.2-0.5,1.2-1.2
			c0-0.6-0.5-1.2-1.1-1.2c-0.7-0.1-1.3,0.5-1.3,1.1C22.4,51.7,23,52.4,23.7,52.4z"/>
		<path class="st7" d="M26.3,11.5c0.7,0,1.4,0.1,2,0.6c2.5,1.9,5,3.7,7.4,5.6c0.2,0.2,0.4,0.4,0.6,0.6c0.1,0.1,0,0.4-0.2,0.5
			c-0.4,0-0.9,0-1.3,0c-1.5,0-3,0.2-4.4,0.6c-1.3,0.3-2.4,0.9-3.4,1.8c-0.3,0.3-0.5,0.6-0.3,1c0.4,0.8,0.1,1.5-0.5,2
			c-1.3,1.3-2.7,2.7-4,4c-0.6,0.6-1.3,0.8-2.2,0.5c-0.6-0.2-1.5,0.3-1.4,1c0.1,1.1-0.4,1.8-1.1,2.4c-0.6,0.5-1.1,1-1.6,1.6
			c-0.8,0.9-2.2,0.7-2.8,0c-1.4-1.4-2.8-2.9-4.2-4.3c-0.7-0.7-0.8-2,0.1-2.8c0.7-0.7,1.4-1.4,2.1-2.1c0.7-0.7,1.5-0.8,2.3-0.4
			c0.3,0.1,0.5,0.3,0.8,0.1c0.3-0.3,0.7-0.6,0.5-1.1c-0.3-1.2,0.1-2.1,0.9-3c2.6-2.5,5.1-5,7.7-7.6C24.1,11.9,25.1,11.5,26.3,11.5z"
			/>
		<path class="st7" d="M41.9,39.2c0.4,0.1,0.6,0.4,0.8,0.6c3,3,5.9,5.9,8.9,8.9c0.2,0.2,0.5,0.5,0.7,0.8c1.1,1.5,0.9,3.5-0.3,4.8
			c-1.3,1.3-3.3,1.5-4.8,0.4c-0.2-0.2-0.5-0.4-0.7-0.6c-3-3-6-6.1-9.1-9.1c-0.1-0.1-0.2-0.2-0.3-0.3c-0.1-0.2-0.1-0.4,0-0.5
			c0,0,0.1-0.1,0.1-0.1C38.8,42.4,40.4,40.8,41.9,39.2z"/>
		<path class="st7" d="M30.6,38c-0.4-0.3-0.6-0.6-0.9-0.8c-2.2-2.3-4.5-4.5-6.7-6.8c-0.2-0.2-0.4-0.3-0.5-0.5
			c-0.2-0.2-0.2-0.4,0-0.7c1.6-1.6,3.2-3.2,4.7-4.7c0.4,0.1,0.5,0.2,0.7,0.4c2.4,2.4,4.8,4.8,7.2,7.2c0.1,0.1,0.1,0.1,0.2,0.2
			c0.4,0.4,0.4,0.5,0,0.9c-0.5,0.5-1.1,1.1-1.6,1.6C32.8,35.8,31.8,36.9,30.6,38z"/>
	</g>
</g>
</svg>
